<?xml version="1.0" encoding="UTF-8" standalone="no"?>
<!DOCTYPE svg PUBLIC "-//W3C//DTD SVG 1.1//EN" "http://www.w3.org/Graphics/SVG/1.1/DTD/svg11.dtd">
<svg version="1.1" xmlns="http://www.w3.org/2000/svg" xmlns:xlink="http://www.w3.org/1999/xlink" preserveAspectRatio="xMidYMid meet" viewBox="121.41843971631212 63.60902255639096 70.76201141150753 69.51154481949555" width="175.09" height="172"><defs><path d="M121.42 63.61L192.18 63.61L192.18 133.12L121.42 133.12L121.42 63.61Z" id="b18qtBr4QG"></path><path d="M190.04 93.13C190.04 98.07 185.75 102.08 180.46 102.08C175.18 102.08 170.89 98.07 170.89 93.13C170.89 88.19 175.18 84.18 180.46 84.18C185.75 84.18 190.04 88.19 190.04 93.13Z" id="f1flvn6oPL"></path><path d="M121.42 69.89L190.04 69.89L190.04 81.95L121.42 81.95L121.42 69.89Z" id="b138c4TbA6"></path><path d="M134.89 84.18L143.89 84.18L143.89 128.54L134.89 128.54L134.89 84.18Z" id="bKzE7CDJZ"></path><path d="M175.32 89.86C175.32 89.86 174.05 89.86 172.48 89.86C170.92 89.86 169.65 89.86 169.65 89.86C169.65 89.86 170.92 89.86 172.48 89.86C174.05 89.86 174.75 89.86 175.32 89.86Z" id="a2JCWyevWk"></path><path d="M175.32 121.06L175.32 121.06L175.32 133.12L175.32 133.12L175.32 121.06Z" id="a1XxkE1pF5"></path><path d="M187.02 93.13C187.02 98.07 182.73 102.08 177.45 102.08C172.16 102.08 167.87 98.07 167.87 93.13C167.87 88.19 172.16 84.18 177.45 84.18C182.73 84.18 187.02 88.19 187.02 93.13Z" id="h8BYHaRFe"></path><path d="M153.69 84.18L162.69 84.18L162.69 128.54L153.69 128.54L153.69 84.18Z" id="d1AePnv9PU"></path><path d="M173.37 126.01L190.04 126.01L173.37 102.97L173.37 126.01Z" id="acaYuw2w1"></path><path d="M172.48 127.09L189.15 127.09L172.48 104.04L172.48 127.09Z" id="a1I4nPq04C"></path><path d="M121.42 78.19L190.04 78.19L190.04 81.95L121.42 81.95L121.42 78.19Z" id="bl0pQZ7bv"></path><path d="M146.89 84.18L143.89 84.18L143.89 128.54L146.89 128.54L146.89 84.18Z" id="d1EkggKaG2"></path><path d="M161.19 84.18L164.19 84.18L164.19 128.54L161.19 128.54L161.19 84.18Z" id="f22shHTdWQ"></path></defs><g><g><g><use xlink:href="#b18qtBr4QG" opacity="1" fill="#243665" fill-opacity="1"></use></g><g><use xlink:href="#f1flvn6oPL" opacity="1" fill="#fefefe" fill-opacity="1"></use></g><g><use xlink:href="#b138c4TbA6" opacity="1" fill="#8bd8bd" fill-opacity="1"></use></g><g><use xlink:href="#bKzE7CDJZ" opacity="1" fill="#8bd8bd" fill-opacity="1"></use></g><g><use xlink:href="#a2JCWyevWk" opacity="1" fill="#098a3a" fill-opacity="1"></use></g><g><use xlink:href="#a1XxkE1pF5" opacity="1" fill="#230e5f" fill-opacity="1"></use></g><g><use xlink:href="#h8BYHaRFe" opacity="1" fill="#8bd8bd" fill-opacity="1"></use></g><g><use xlink:href="#d1AePnv9PU" opacity="1" fill="#8bd8bd" fill-opacity="1"></use></g><g><use xlink:href="#acaYuw2w1" opacity="1" fill="#fefefe" fill-opacity="1"></use><g><use xlink:href="#acaYuw2w1" opacity="1" fill-opacity="0" stroke="#000000" stroke-width="0" stroke-opacity="1"></use></g></g><g><use xlink:href="#a1I4nPq04C" opacity="1" fill="#8bd8bd" fill-opacity="1"></use><g><use xlink:href="#a1I4nPq04C" opacity="1" fill-opacity="0" stroke="#000000" stroke-width="0" stroke-opacity="1"></use></g></g><g><use xlink:href="#bl0pQZ7bv" opacity="1" fill="#fefefe" fill-opacity="1"></use></g><g><use xlink:href="#d1EkggKaG2" opacity="1" fill="#fefefe" fill-opacity="1"></use></g><g><use xlink:href="#f22shHTdWQ" opacity="1" fill="#fefefe" fill-opacity="1"></use></g></g></g></svg>
